HIERARCHY
ROOT hip
{
  OFFSET 0 0 0
  CHANNELS 6 Xposition Yposition Zposition Zrotation Yrotation Xrotation
  JOINT abdomen
  {
    OFFSET 0 20.6881 -0.73152
    CHANNELS 3 Zrotation Xrotation Yrotation
    JOINT chest
    {
      OFFSET 0 11.7043 -0.48768
      CHANNELS 3 Zrotation Xrotation Yrotation
      JOINT neck
      {
        OFFSET 0 22.1894 -2.19456
        CHANNELS 3 Zrotation Xrotation Yrotation
        JOINT head
        {
          OFFSET -0.24384 7.07133 1.2192
          CHANNELS 3 Zrotation Xrotation Yrotation
          JOINT leftEye
          {
            OFFSET 4.14528 8.04674 8.04672
            CHANNELS 3 Zrotation Xrotation Yrotation
            End Site
            {
              OFFSET 1 0 0
            }
          }
          JOINT rightEye
          {
            OFFSET -3.6576 8.04674 8.04672
            CHANNELS 3 Zrotation Xrotation Yrotation
            End Site
            {
              OFFSET 1 0 0
            }
          }
        }
      }
      JOINT rCollar
      {
        OFFSET -2.68224 19.2634 -4.8768
        CHANNELS 3 Zrotation Xrotation Yrotation
        JOINT rShldr
        {
          OFFSET -8.77824 -1.95073 1.46304
          CHANNELS 3 Zrotation Xrotation Yrotation
          JOINT rForeArm
          {
            OFFSET -28.1742 -1.7115 0.48768
            CHANNELS 3 Zrotation Xrotation Yrotation
            JOINT rHand
            {
              OFFSET -22.5879 0.773209 7.07136
              CHANNELS 3 Zrotation Xrotation Yrotation
              JOINT rThumb1
              {
                OFFSET -1.2192 -0.487915 3.41376
                CHANNELS 3 Zrotation Xrotation Yrotation
                JOINT rThumb2
                {
                  OFFSET -3.37035 -0.52449 3.41376
                  CHANNELS 3 Zrotation Xrotation Yrotation
                  End Site
                  {
                    OFFSET -1.78271 -1.18214 1.43049
                  }
                }
              }
              JOINT rIndex1
              {
                OFFSET -7.75947 0.938293 5.60832
                CHANNELS 3 Zrotation Xrotation Yrotation
                JOINT rIndex2
                {
                  OFFSET -2.54057 -0.884171 1.56538
                  CHANNELS 3 Zrotation Xrotation Yrotation
                  End Site
                  {
                    OFFSET -1.62519 -0.234802 1.16502
                  }
                }
              }
              JOINT rMid1
              {
                OFFSET -8.24714 1.18213 3.41376
                CHANNELS 3 Zrotation Xrotation Yrotation
                JOINT rMid2
                {
                  OFFSET -3.10165 -0.590103 1.0647
                  CHANNELS 3 Zrotation Xrotation Yrotation
                  End Site
                  {
                    OFFSET -2.48547 -0.328903 0.83742
                  }
                }
              }
              JOINT rRing1
              {
                OFFSET -8.82822 0.546677 1.51678
                CHANNELS 3 Zrotation Xrotation Yrotation
                JOINT rRing2
                {
                  OFFSET -2.60934 -0.819778 -0.0198488
                  CHANNELS 3 Zrotation Xrotation Yrotation
                  End Site
                  {
                    OFFSET -2.33842 -0.294052 0.168128
                  }
                }
              }
              JOINT rPinky1
              {
                OFFSET -8.27202 -0.0477905 -0.4584
                CHANNELS 3 Zrotation Xrotation Yrotation
                JOINT rPinky2
                {
                  OFFSET -1.82734 -0.647385 -0.700984
                  CHANNELS 3 Zrotation Xrotation Yrotation
                  End Site
                  {
                    OFFSET -1.69225 -0.51767 -0.607171
                  }
                }
              }
            }
          }
        }
      }
      JOINT lCollar
      {
        OFFSET 2.68224 19.2634 -4.8768
        CHANNELS 3 Zrotation Xrotation Yrotation
        JOINT lShldr
        {
          OFFSET 8.77824 -1.95073 1.46304
          CHANNELS 3 Zrotation Xrotation Yrotation
          JOINT lForeArm
          {
            OFFSET 28.1742 -1.7115 0.48768
            CHANNELS 3 Zrotation Xrotation Yrotation
            JOINT lHand
            {
              OFFSET 22.5879 0.773209 7.07136
              CHANNELS 3 Zrotation Xrotation Yrotation
              JOINT lThumb1
              {
                OFFSET 1.2192 -0.487915 3.41376
                CHANNELS 3 Zrotation Xrotation Yrotation
                JOINT lThumb2
                {
                  OFFSET 3.37035 -0.52449 3.41376
                  CHANNELS 3 Zrotation Xrotation Yrotation
                  End Site
                  {
                    OFFSET 1.78271 -1.18214 1.43049
                  }
                }
              }
              JOINT lIndex1
              {
                OFFSET 7.75947 0.938293 5.60832
                CHANNELS 3 Zrotation Xrotation Yrotation
                JOINT lIndex2
                {
                  OFFSET 2.54057 -0.884171 1.56538
                  CHANNELS 3 Zrotation Xrotation Yrotation
                  End Site
                  {
                    OFFSET 1.62519 -0.234802 1.16502
                  }
                }
              }
              JOINT lMid1
              {
                OFFSET 8.24714 1.18213 3.41376
                CHANNELS 3 Zrotation Xrotation Yrotation
                JOINT lMid2
                {
                  OFFSET 3.10165 -0.590103 1.0647
                  CHANNELS 3 Zrotation Xrotation Yrotation
                  End Site
                  {
                    OFFSET 2.48547 -0.328903 0.83742
                  }
                }
              }
              JOINT lRing1
              {
                OFFSET 8.82822 0.546677 1.51678
                CHANNELS 3 Zrotation Xrotation Yrotation
                JOINT lRing2
                {
                  OFFSET 2.60934 -0.819778 -0.0198488
                  CHANNELS 3 Zrotation Xrotation Yrotation
                  End Site
                  {
                    OFFSET 2.33842 -0.294052 0.168128
                  }
                }
              }
              JOINT lPinky1
              {
                OFFSET 8.27202 -0.0477905 -0.4584
                CHANNELS 3 Zrotation Xrotation Yrotation
                JOINT lPinky2
                {
                  OFFSET 1.82734 -0.647385 -0.700984
                  CHANNELS 3 Zrotation Xrotation Yrotation
                  End Site
                  {
                    OFFSET 1.69225 -0.51767 -0.607171
                  }
                }
              }
            }
          }
        }
      }
    }
  }
  JOINT rButtock
  {
    OFFSET -8.77824 4.35084 1.2192
    CHANNELS 3 Zrotation Xrotation Yrotation
    JOINT rThigh
    {
      OFFSET 0 -1.70687 -2.19456
      CHANNELS 3 Zrotation Xrotation Yrotation
      JOINT rShin
      {
        OFFSET 0 -36.8199 0.73152
        CHANNELS 3 Zrotation Xrotation Yrotation
        JOINT rFoot
        {
          OFFSET 0.73152 -45.1104 -5.12064
          CHANNELS 3 Zrotation Xrotation Yrotation
          End Site
          {
            OFFSET -1.1221 -3.69964 12.103
          }
        }
      }
    }
  }
  JOINT lButtock
  {
    OFFSET 8.77824 4.35084 1.2192
    CHANNELS 3 Zrotation Xrotation Yrotation
    JOINT lThigh
    {
      OFFSET 0 -1.70687 -2.19456
      CHANNELS 3 Zrotation Xrotation Yrotation
      JOINT lShin
      {
        OFFSET 0 -36.8199 0.73152
        CHANNELS 3 Zrotation Xrotation Yrotation
        JOINT lFoot
        {
          OFFSET -0.73152 -45.1104 -5.12064
          CHANNELS 3 Zrotation Xrotation Yrotation
          End Site
          {
            OFFSET 1.1221 -3.69964 12.103
          }
        }
      }
    }
  }
}
MOTION
Frames:	6
Frame Time:	0.00833333
30.7702 75.7411 89.0013 -12.3393 73.1225 2.2186 -4.71947 22.7003 -8.91864 3.83884 -9.01364 -2.32979 -4.03754 -3.62219 -9.05369 17.4283 6.13838 -17.0661 -0.0 0.0 0.0 -0.0 0.0 0.0 -9.53278e-14 2.07787e-13 1.5617e-14 80.5888 39.056 -3.65333 -25.4258 -22.0415 54.5023 -0.476058 -19.2304 -2.81003 2.10012e-10 2.14638e-09 -2.10102e-09 3.9416e-10 3.70543e-09 -3.62618e-09 2.10021e-10 2.14638e-09 -2.10103e-09 7.73091 5.47488 0.417314 2.10006e-10 2.14637e-09 -2.10101e-09 2.90554 0.965183 0.102902 2.1002e-10 2.14638e-09 -2.10102e-09 10.2786 0.731801 0.0259123 2.10008e-10 2.14638e-09 -2.10102e-09 2.22167 -0.733487 -0.20892 -9.53025e-14 2.07791e-13 1.53674e-14 -39.0712 49.1084 -35.9409 24.812 -20.6981 -52.2943 1.23861 -29.9029 4.63593 -2.00497e-11 2.89153e-10 -2.86508e-10 -2.92272e-11 5.07032e-10 -4.97592e-10 -2.00528e-11 2.8915e-10 -2.86488e-10 -7.73091 5.47488 -0.417314 -2.00477e-11 2.89152e-10 -2.86509e-10 -2.90554 0.965183 -0.102902 -2.00499e-11 2.8915e-10 -2.8651e-10 -10.2786 0.731801 -0.0259123 -2.00414e-11 2.89153e-10 -2.86518e-10 -2.22167 -0.733487 0.20892 -2.03217e-16 0.0 -3.88251e-19 2.32874 -51.2139 4.83358 -1.29202 62.8354 1.6559 6.23173 -18.9837 14.2716 2.03217e-16 0.0 3.88251e-19 11.5386 -47.3282 -3.21232 1.46892 67.3689 -2.6914 2.29037 -38.2644 4.62476
30.5003 75.0788 90.4195 -12.5393 73.2841 2.4086 -4.52446 22.937 -8.78388 3.87631 -9.06978 -2.27339 -4.21014 -3.63196 -9.21397 17.6848 5.70734 -17.2886 -0.0 0.0 0.0 -0.0 0.0 0.0 -1.51505e-13 3.8564e-13 1.05058e-13 80.1462 39.2093 -3.22193 -25.4589 -22.118 54.6271 -0.466691 -19.0475 -2.78122 4.50545e-10 9.31459e-10 -1.46809e-09 7.96585e-10 1.59896e-09 -2.52712e-09 4.50554e-10 9.31454e-10 -1.46809e-09 7.73091 5.47488 0.417314 4.50539e-10 9.31445e-10 -1.46807e-09 2.90554 0.965183 0.102902 4.50553e-10 9.31456e-10 -1.46809e-09 10.2786 0.731801 0.0259123 4.50541e-10 9.31458e-10 -1.46808e-09 2.22167 -0.733487 -0.20892 -1.51453e-13 3.85645e-13 1.04809e-13 -38.6018 48.7249 -36.2079 24.9067 -20.8973 -52.6208 1.23599 -29.8748 4.63066 -5.25326e-10 1.26149e-09 -1.57751e-09 -8.68747e-10 2.23999e-09 -2.74212e-09 -5.25329e-10 1.26148e-09 -1.57749e-09 -7.73091 5.47488 -0.417314 -5.25324e-10 1.26148e-09 -1.57751e-09 -2.90554 0.965183 -0.102902 -5.25326e-10 1.26148e-09 -1.57751e-09 -10.2786 0.731801 -0.0259123 -5.25318e-10 1.26149e-09 -1.57752e-09 -2.22167 -0.733487 0.20892 -2.03217e-16 0.0 -3.88251e-19 2.02338 -52.6078 4.16872 -1.41526 64.274 1.76924 6.53827 -18.9054 15.0444 2.03217e-16 0.0 3.88251e-19 11.8338 -48.7517 -2.96504 1.63785 68.8135 -2.8579 1.93118 -38.549 4.08476
30.23 74.378 91.8291 -12.7013 73.3343 2.6163 -4.47301 23.2503 -8.545 3.94883 -9.11128 -2.19327 -4.34519 -3.67666 -9.37348 17.884 5.2916 -17.5188 -0.0 0.0 0.0 -0.0 0.0 0.0 -1.14908e-13 3.52973e-13 1.72144e-13 79.6566 39.3616 -2.73612 -25.4948 -22.2014 54.7627 -0.46117 -18.9377 -2.76398 2.71555e-10 -6.97893e-10 -1.00548e-10 4.6589e-10 -1.21456e-09 -1.67755e-10 2.71563e-10 -6.97899e-10 -1.00543e-10 7.73091 5.47488 0.417314 2.7155e-10 -6.97906e-10 -1.0053e-10 2.90554 0.965183 0.102902 2.71564e-10 -6.97896e-10 -1.00543e-10 10.2786 0.731801 0.0259123 2.71552e-10 -6.97894e-10 -1.00538e-10 2.22167 -0.733487 -0.20892 -1.14854e-13 3.52976e-13 1.71897e-13 -38.1123 48.3312 -36.4539 25.011 -21.1199 -52.9855 1.23395 -29.853 4.62657 -9.22362e-10 1.69538e-09 -2.31793e-09 -1.53484e-09 3.02141e-09 -4.03119e-09 -9.22363e-10 1.69538e-09 -2.31791e-09 -7.73091 5.47488 -0.417314 -9.2236e-10 1.69538e-09 -2.31794e-09 -2.90554 0.965183 -0.102902 -9.22362e-10 1.69538e-09 -2.31793e-09 -10.2786 0.731801 -0.0259123 -9.22354e-10 1.69539e-09 -2.31794e-09 -2.22167 -0.733487 0.20892 -2.03217e-16 0.0 -3.88251e-19 1.68931 -54.0276 3.50575 -1.56362 65.8342 1.91492 6.77672 -18.8428 15.6323 2.03217e-16 0.0 3.88251e-19 12.1912 -50.0407 -2.61066 1.84168 70.2694 -3.03969 1.28285 -38.8337 3.12201
29.9617 73.6509 93.2218 -12.6068 73.3253 3.0921 -4.5235 23.6119 -8.23218 4.04812 -9.14284 -2.09623 -4.46109 -3.74447 -9.53109 18.04 4.88413 -17.7486 -0.0 0.0 0.0 -0.0 0.0 0.0 -2.33765e-14 2.01183e-13 2.37843e-13 79.1116 39.5208 -2.19792 -25.5318 -22.2878 54.9032 -0.458089 -18.8761 -2.75431 -1.5937e-10 -2.75428e-09 1.83312e-09 -3.07207e-10 -4.76084e-09 3.16446e-09 -1.59361e-10 -2.75428e-09 1.83312e-09 7.73091 5.47488 0.417314 -1.59373e-10 -2.75429e-09 1.83313e-09 2.90554 0.965183 0.102902 -1.59359e-10 -2.75428e-09 1.83312e-09 10.2786 0.731801 0.0259123 -1.59371e-10 -2.75428e-09 1.83313e-09 2.22167 -0.733487 -0.20892 -2.33364e-14 2.01182e-13 2.37597e-13 -37.6319 47.9216 -36.6642 25.1224 -21.3614 -53.3852 1.23183 -29.8301 4.62229 -1.30618e-09 1.88385e-09 -2.84143e-09 -2.18324e-09 3.37092e-09 -4.94433e-09 -1.30618e-09 1.88385e-09 -2.84142e-09 -7.73091 5.47488 -0.417314 -1.30618e-09 1.88385e-09 -2.84144e-09 -2.90554 0.965183 -0.102902 -1.30618e-09 1.88385e-09 -2.84144e-09 -10.2786 0.731801 -0.0259123 -1.30617e-09 1.88385e-09 -2.84144e-09 -2.22167 -0.733487 0.20892 -2.03217e-16 0.0 -3.88251e-19 1.30761 -55.4879 2.8241 -1.74639 67.5116 2.09971 6.97568 -18.7352 16.1464 2.03217e-16 0.0 3.88251e-19 12.6027 -51.2464 -2.17204 2.08388 71.7481 -3.24636 0.424043 -39.1133 1.8598
29.7195 72.9265 94.6536 -12.5752 73.2318 3.3831 -4.58964 23.9684 -7.88556 4.14764 -9.1636 -1.99102 -4.56348 -3.82142 -9.67808 18.1647 4.4645 -17.9574 -0.0 0.0 0.0 -0.0 0.0 0.0 6.84052e-14 3.64652e-14 2.92014e-13 78.5006 39.6858 -1.59206 -25.5649 -22.3655 55.0299 -0.454643 -18.8089 -2.74374 -5.93173e-10 -4.46984e-09 3.50618e-09 -1.08094e-09 -7.71766e-09 6.04627e-09 -5.93164e-10 -4.46984e-09 3.50618e-09 7.73091 5.47488 0.417314 -5.93173e-10 -4.46984e-09 3.50619e-09 2.90554 0.965183 0.102902 -5.9316e-10 -4.46984e-09 3.50619e-09 10.2786 0.731801 0.0259123 -5.93172e-10 -4.46984e-09 3.50619e-09 2.22167 -0.733487 -0.20892 6.84264e-14 3.64607e-14 2.91769e-13 -37.1852 47.4951 -36.8174 25.2386 -21.6177 -53.8092 1.23117 -29.823 4.62097 -1.57358e-09 1.88415e-09 -3.09754e-09 -2.6375e-09 3.38428e-09 -5.39234e-09 -1.57358e-09 1.88416e-09 -3.09753e-09 -7.73091 5.47488 -0.417314 -1.57358e-09 1.88415e-09 -3.09755e-09 -2.90554 0.965183 -0.102902 -1.57359e-09 1.88415e-09 -3.09754e-09 -10.2786 0.731801 -0.0259123 -1.57358e-09 1.88415e-09 -3.09755e-09 -2.22167 -0.733487 0.20892 -2.03217e-16 0.0 -3.88251e-19 0.933284 -56.9617 2.16643 -1.96241 69.1925 2.31657 7.17545 -18.6165 16.6702 2.03217e-16 0.0 3.88251e-19 13.1273 -52.4529 -1.59049 2.36972 73.2581 -3.49668 -0.446732 -39.3756 0.594442
29.5482 72.2858 96.2074 -12.5133 73.1823 3.4627 -4.58282 24.2664 -7.54606 4.22082 -9.17269 -1.88641 -4.65779 -3.89356 -9.80575 18.27 4.01219 -18.125 -0.0 0.0 0.0 -0.0 0.0 0.0 1.05754e-13 -3.49814e-14 3.24516e-13 77.8128 39.8552 -0.903114 -25.5892 -22.4229 55.1245 -0.448127 -18.6821 -2.72381 -7.80798e-10 -5.07671e-09 4.09192e-09 -1.41353e-09 -8.76278e-09 7.0544e-09 -7.80789e-10 -5.07671e-09 4.09192e-09 7.73091 5.47488 0.417314 -7.80797e-10 -5.07671e-09 4.09192e-09 2.90554 0.965183 0.102902 -7.80784e-10 -5.07671e-09 4.09192e-09 10.2786 0.731801 0.0259123 -7.80796e-10 -5.07671e-09 4.09193e-09 2.22167 -0.733487 -0.20892 1.0576e-13 -3.49908e-14 3.24267e-13 -36.7963 47.0506 -36.893 25.3575 -21.8852 -54.2465 1.23353 -29.8485 4.62572 -1.62137e-09 1.75355e-09 -3.03578e-09 -2.72116e-09 3.15726e-09 -5.28606e-09 -1.62137e-09 1.75357e-09 -3.03577e-09 -7.73091 5.47488 -0.417314 -1.62137e-09 1.75355e-09 -3.03579e-09 -2.90554 0.965183 -0.102902 -1.62138e-09 1.75356e-09 -3.03578e-09 -10.2786 0.731801 -0.0259123 -1.62137e-09 1.75356e-09 -3.03579e-09 -2.22167 -0.733487 0.20892 -2.03217e-16 0.0 -3.88251e-19 0.632076 -58.4232 1.5842 -2.2032 70.7634 2.55132 7.41722 -18.5191 17.2874 2.03217e-16 0.0 3.88251e-19 13.8377 -53.7429 -0.796488 2.71297 74.8075 -3.81778 -1.12334 -39.6204 -0.372766
